<svg xmlns="http://www.w3.org/2000/svg" width="486" height="564" viewBox="0 0 486 564">

<defs>
  <filter id="shadowLight" x="-20%" y="-20%" width="140%" height="160%">
    <feDropShadow dx="0" dy="3" stdDeviation="4" flood-color="#34404F" flood-opacity="0.16"/>
  </filter>
  <filter id="shadowDark" x="-20%" y="-20%" width="140%" height="160%">
    <feDropShadow dx="0" dy="4" stdDeviation="6" flood-color="#171D26" flood-opacity="0.35"/>
  </filter>
  <linearGradient id="btnBlue" x1="0" x2="1">
    <stop offset="0%" stop-color="#2D78DD"/>
    <stop offset="100%" stop-color="#256ECA"/>
  </linearGradient>
  <linearGradient id="btnDark" x1="0" x2="1">
    <stop offset="0%" stop-color="#2E3744"/>
    <stop offset="100%" stop-color="#262E39"/>
  </linearGradient>
  <linearGradient id="folderBlue" x1="0" y1="0" x2="0" y2="1">
    <stop offset="0%" stop-color="#6BAAF1"/>
    <stop offset="100%" stop-color="#3484E9"/>
  </linearGradient>
  <linearGradient id="folderIce" x1="0" y1="0" x2="0" y2="1">
    <stop offset="0%" stop-color="#DCE9F8"/>
    <stop offset="100%" stop-color="#9ABBE4"/>
  </linearGradient>
  <linearGradient id="folderDarkGrad" x1="0" y1="0" x2="0" y2="1">
    <stop offset="0%" stop-color="#5A6576"/>
    <stop offset="100%" stop-color="#2A313D"/>
  </linearGradient>
  <linearGradient id="surfaceDarkPanel" x1="0" x2="1" y1="0" y2="1">
    <stop offset="0%" stop-color="#2E3642"/>
    <stop offset="100%" stop-color="#202733"/>
  </linearGradient>
</defs>


<rect width="486" height="564" fill="#DDE5EE"/>
<rect y="72" width="486" height="492" rx="14" fill="#FBFBFC" stroke="#C9D0DB"/>
<g filter="url(#shadowLight)">
  <rect x="299" y="28" width="162" height="28" rx="11" fill="#F4F6FA" stroke="#D5DCE7"/>
</g>
<g fill="none" stroke="#455061" stroke-width="2" stroke-linecap="round" stroke-linejoin="round">
  <path d="M346 38c3 1 5 3 6 5"/>
  <path d="M342 40c2 1 3 2 4 4"/>
  <circle cx="341" cy="46" r="1.4" fill="#455061" stroke="none"/>
  <path d="M363 39v6"/>
  <path d="M367 37v10"/>
  <path d="M371 35v14"/>
  <path d="M385 38h18v10h-18z"/>
  <rect x="404" y="40" width="3" height="6" rx="1.5" fill="#455061" stroke="none"/>
</g>
<line x1="0" y1="124" x2="486" y2="124" stroke="#C9D0DB"/>
<line x1="200" y1="124" x2="200" y2="564" stroke="#D9DFE8"/>
<line x1="200" y1="170" x2="486" y2="170" stroke="#D9DFE8"/>
<line x1="0" y1="170" x2="200" y2="170" stroke="#D9DFE8"/>
<rect x="86" y="92" width="120" height="18" rx="4" fill="#DDE2EA"/>
<g fill="#6F7888">
  <path d="M22 94l9-9 9 9v10h-6v-6h-6v6h-6z"/>
  <circle cx="25" cy="147" r="9" fill="none" stroke="#6F7888" stroke-width="2"/>
  <path d="M25 142v5l4 2" stroke="#6F7888" stroke-width="2" stroke-linecap="round"/>
  <path d="M18 191c0-4 3-7 7-7s7 3 7 7-3 7-7 7-7-3-7-7z"/>
  <path d="M16 236h18v14H16z"/>
  <path d="M19 280h3v14h-3zM24 276h3v18h-3zM29 272h3v22h-3z"/>
  <path d="M17 322l9-3 9 3v10H17z"/>
  <path d="M17 366h18v14H17z"/>
  <path d="M19 410h14v18H19z"/>
</g>
<!-- sidebar placeholders -->
<rect x="46" y="138" width="108" height="18" rx="4" fill="#DDE2EA"/>
<rect x="46" y="193" width="108" height="18" rx="4" fill="#DDE2EA"/>
<rect x="46" y="248" width="108" height="18" rx="4" fill="#DDE2EA"/>
<rect x="46" y="303" width="108" height="18" rx="4" fill="#DDE2EA"/>
<rect x="46" y="358" width="108" height="18" rx="4" fill="#DDE2EA"/>
<rect x="46" y="413" width="108" height="18" rx="4" fill="#DDE2EA"/>
<rect x="46" y="468" width="108" height="18" rx="4" fill="#DDE2EA"/>
<!-- top tab placeholders -->
<rect x="224" y="138" width="92" height="14" rx="4" fill="#DDE2EA"/>
<rect x="364" y="138" width="86" height="14" rx="4" fill="#DDE2EA"/>
<rect x="224" y="166" width="116" height="4" rx="2" fill="#2A73D6"/>
<!-- content icons -->
<rect x="223" y="199" width="63" height="49" rx="6" fill="url(#folderIce)" stroke="#8EACCF"/>
<path d="M223 208h23l8-8h32v12H223z" fill="#8EB6E6"/>
<rect x="318" y="199" width="66" height="49" rx="6" fill="url(#folderDarkGrad)" stroke="#697585"/>
<path d="M318 208h24l8-8h34v12h-66z" fill="#7A8698"/>
<rect x="413" y="199" width="66" height="49" rx="6" fill="url(#folderBlue)" stroke="#2A73D6"/>
<path d="M413 208h24l8-8h34v12h-66z" fill="#8CC0F7"/>
<rect x="223" y="260" width="66" height="78" rx="8" fill="#FFFFFF" stroke="#D5DBE5"/>
<rect x="318" y="260" width="66" height="78" rx="8" fill="#FFFFFF" stroke="#D5DBE5"/>
<rect x="413" y="260" width="66" height="78" rx="8" fill="#FFFFFF" stroke="#D5DBE5"/>
<path d="M239 272h28l8 8v42h-44v-50z" fill="#F5F7FA" stroke="#C9D0DB"/>
<path d="M267 272v10h10" fill="none" stroke="#C9D0DB"/>
<line x1="241" y1="287" x2="265" y2="287" stroke="#97A1B0" stroke-width="2" stroke-linecap="round"/>
<line x1="241" y1="295" x2="265" y2="295" stroke="#97A1B0" stroke-width="2" stroke-linecap="round"/>
<line x1="241" y1="303" x2="265" y2="303" stroke="#97A1B0" stroke-width="2" stroke-linecap="round"/>
<line x1="241" y1="311" x2="265" y2="311" stroke="#97A1B0" stroke-width="2" stroke-linecap="round"/>
<path d="M334 272h28l8 8v42h-44v-50z" fill="#F5F7FA" stroke="#C9D0DB"/>
<path d="M362 272v10h10" fill="none" stroke="#C9D0DB"/>
<line x1="336" y1="287" x2="360" y2="287" stroke="#97A1B0" stroke-width="2" stroke-linecap="round"/>
<line x1="336" y1="295" x2="360" y2="295" stroke="#97A1B0" stroke-width="2" stroke-linecap="round"/>
<line x1="336" y1="303" x2="360" y2="303" stroke="#97A1B0" stroke-width="2" stroke-linecap="round"/>
<line x1="336" y1="311" x2="360" y2="311" stroke="#97A1B0" stroke-width="2" stroke-linecap="round"/>
<rect x="423" y="270" width="45" height="50" rx="8" fill="url(#surfaceDarkPanel)"/>
<circle cx="445" cy="296" r="15" fill="#456CA6"/>

</svg>
