<svg xmlns="http://www.w3.org/2000/svg" width="487" height="565" viewBox="0 0 487 565">

<defs>
  <filter id="shadowLight" x="-20%" y="-20%" width="140%" height="160%">
    <feDropShadow dx="0" dy="3" stdDeviation="4" flood-color="#34404F" flood-opacity="0.16"/>
  </filter>
  <filter id="shadowDark" x="-20%" y="-20%" width="140%" height="160%">
    <feDropShadow dx="0" dy="4" stdDeviation="6" flood-color="#171D26" flood-opacity="0.35"/>
  </filter>
  <linearGradient id="btnBlue" x1="0" x2="1">
    <stop offset="0%" stop-color="#2D78DD"/>
    <stop offset="100%" stop-color="#256ECA"/>
  </linearGradient>
  <linearGradient id="btnDark" x1="0" x2="1">
    <stop offset="0%" stop-color="#2E3744"/>
    <stop offset="100%" stop-color="#262E39"/>
  </linearGradient>
  <linearGradient id="folderBlue" x1="0" y1="0" x2="0" y2="1">
    <stop offset="0%" stop-color="#6BAAF1"/>
    <stop offset="100%" stop-color="#3484E9"/>
  </linearGradient>
  <linearGradient id="folderIce" x1="0" y1="0" x2="0" y2="1">
    <stop offset="0%" stop-color="#DCE9F8"/>
    <stop offset="100%" stop-color="#9ABBE4"/>
  </linearGradient>
  <linearGradient id="folderDarkGrad" x1="0" y1="0" x2="0" y2="1">
    <stop offset="0%" stop-color="#5A6576"/>
    <stop offset="100%" stop-color="#2A313D"/>
  </linearGradient>
  <linearGradient id="surfaceDarkPanel" x1="0" x2="1" y1="0" y2="1">
    <stop offset="0%" stop-color="#2E3642"/>
    <stop offset="100%" stop-color="#202733"/>
  </linearGradient>
</defs>


<rect width="487" height="565" fill="url(#surfaceDarkPanel)"/>
<rect x="19" y="73" width="468" height="492" rx="12" fill="url(#surfaceDarkPanel)" stroke="#4C5667"/>
<g filter="url(#shadowDark)">
  <rect x="308" y="28" width="176" height="29" rx="11" fill="#2B3340" stroke="#4C5667"/>
</g>
<g fill="none" stroke="#F0F4F8" stroke-width="2" stroke-linecap="round" stroke-linejoin="round">
  <path d="M372 37c3 1 5 3 6 5"/>
  <path d="M368 39c2 1 3 2 4 4"/>
  <circle cx="367" cy="45" r="1.4" fill="#F0F4F8" stroke="none"/>
  <path d="M393 38v6"/>
  <path d="M397 36v10"/>
  <path d="M401 34v14"/>
  <path d="M416 37h18v10h-18z"/>
  <rect x="435" y="39" width="3" height="6" rx="1.5" fill="#F0F4F8" stroke="none"/>
</g>
<line x1="19" y1="124" x2="487" y2="124" stroke="#4C5667"/>
<line x1="19" y1="168" x2="487" y2="168" stroke="#4C5667"/>
<line x1="19" y1="314" x2="465" y2="314" stroke="#4C5667"/>
<line x1="19" y1="409" x2="465" y2="409" stroke="#4C5667"/>
<line x1="75" y1="514" x2="465" y2="514" stroke="#4C5667"/>
<!-- title row -->
<g fill="#D5DBE5">
  <circle cx="49" cy="98" r="12"/>
  <rect x="75" y="91" width="138" height="16" rx="4" fill="#D5DBE5"/>
</g>
<!-- tabs -->
<rect x="43" y="139" width="48" height="16" rx="4" fill="#D5DBE5"/>
<rect x="126" y="139" width="86" height="16" rx="4" fill="#D5DBE5"/>
<rect x="263" y="139" width="96" height="16" rx="4" fill="#6E9DE0"/>
<rect x="392" y="139" width="48" height="16" rx="4" fill="#D5DBE5"/>
<rect x="457" y="139" width="20" height="16" rx="4" fill="#D5DBE5"/>
<!-- section heading -->
<rect x="42" y="189" width="72" height="16" rx="4" fill="#D5DBE5"/>
<!-- style cards -->
<g filter="url(#shadowLight)">
  <rect x="52" y="219" width="224" height="82" rx="8" fill="#F2F3F5"/>
  <rect x="289" y="219" width="164" height="82" rx="8" fill="#151B24"/>
</g>
<rect x="73" y="230" width="150" height="61" rx="4" fill="#E7E8EB" stroke="#C9D0DB"/>
<rect x="304" y="230" width="154" height="61" rx="4" fill="#2F3947" stroke="#11161E"/>
<rect x="84" y="237" width="22" height="6" rx="3" fill="#C2C6CE"/>
<rect x="112" y="237" width="25" height="6" rx="3" fill="#AEB4BE"/>
<rect x="313" y="237" width="24" height="6" rx="3" fill="#99A4B4"/>
<rect x="343" y="237" width="28" height="6" rx="3" fill="#848D99"/>
<rect x="190" y="253" width="22" height="22" rx="4" fill="#F7F7F8" stroke="#C7CED7"/>
<polyline points="320,267 326,273 336,259" fill="none" stroke="#2A73D6" stroke-width="4" stroke-linecap="round" stroke-linejoin="round"/>
<rect x="42" y="334" width="124" height="16" rx="4" fill="#D5DBE5"/>
<circle cx="65" cy="375" r="14" fill="#2A73D6"/>
<circle cx="108" cy="375" r="14" fill="#4D99FD"/>
<circle cx="151" cy="375" r="14" fill="#42B4F4"/>
<circle cx="194" cy="375" r="14" fill="#4CB244"/>
<circle cx="237" cy="375" r="14" fill="#F2D56F"/>
<circle cx="280" cy="375" r="14" fill="#E69A36"/>
<circle cx="323" cy="375" r="14" fill="#E5534B"/>
<circle cx="366" cy="375" r="14" fill="#E06798"/>
<circle cx="409" cy="375" r="14" fill="#D04D9B"/>
<circle cx="452" cy="375" r="14" fill="#7E8794"/>
<rect x="42" y="430" width="130" height="16" rx="4" fill="#D5DBE5"/>
<g filter="url(#shadowDark)">
  <rect x="235" y="459" width="154" height="39" rx="8" fill="#2A313D" stroke="#8993A0"/>
</g>
<circle cx="261" cy="478" r="8" fill="#2A73D6"/>
<circle cx="349" cy="478" r="8" fill="#364050"/>
<rect x="274" y="471" width="52" height="14" rx="4" fill="#D5DBE5"/>
<rect x="363" y="471" width="74" height="14" rx="4" fill="#D5DBE5"/>

</svg>
