<svg xmlns="http://www.w3.org/2000/svg" width="170" height="40" viewBox="0 0 170 40">

<defs>
  <filter id="shadowLight" x="-20%" y="-20%" width="140%" height="160%">
    <feDropShadow dx="0" dy="3" stdDeviation="4" flood-color="#34404F" flood-opacity="0.16"/>
  </filter>
  <filter id="shadowDark" x="-20%" y="-20%" width="140%" height="160%">
    <feDropShadow dx="0" dy="4" stdDeviation="6" flood-color="#171D26" flood-opacity="0.35"/>
  </filter>
  <linearGradient id="btnBlue" x1="0" x2="1">
    <stop offset="0%" stop-color="#2D78DD"/>
    <stop offset="100%" stop-color="#256ECA"/>
  </linearGradient>
  <linearGradient id="btnDark" x1="0" x2="1">
    <stop offset="0%" stop-color="#2E3744"/>
    <stop offset="100%" stop-color="#262E39"/>
  </linearGradient>
  <linearGradient id="folderBlue" x1="0" y1="0" x2="0" y2="1">
    <stop offset="0%" stop-color="#6BAAF1"/>
    <stop offset="100%" stop-color="#3484E9"/>
  </linearGradient>
  <linearGradient id="folderIce" x1="0" y1="0" x2="0" y2="1">
    <stop offset="0%" stop-color="#DCE9F8"/>
    <stop offset="100%" stop-color="#9ABBE4"/>
  </linearGradient>
  <linearGradient id="folderDarkGrad" x1="0" y1="0" x2="0" y2="1">
    <stop offset="0%" stop-color="#5A6576"/>
    <stop offset="100%" stop-color="#2A313D"/>
  </linearGradient>
  <linearGradient id="surfaceDarkPanel" x1="0" x2="1" y1="0" y2="1">
    <stop offset="0%" stop-color="#2E3642"/>
    <stop offset="100%" stop-color="#202733"/>
  </linearGradient>
</defs>


<g filter="url(#shadowDark)">
  <rect x="3" y="5" width="164" height="30" rx="12" fill="url(#surfaceDarkPanel)" stroke="#4C5667"/>
</g>

<g stroke="#F0F4F8" fill="none" stroke-width="2" stroke-linecap="round" stroke-linejoin="round">
  <path d="M52 17c4 2 6 5 7 8"/>
  <path d="M48 20c2 1 3 3 4 5"/>
  <circle cx="46" cy="26" r="1.6" fill="#F0F4F8" stroke="none"/>
  <path d="M74 19v8"/>
  <path d="M78 17v12"/>
  <path d="M82 15v16"/>
  <path d="M89 19c2 1 4 3 5 5"/>
  <path d="M106 18h20v12h-20z"/>
  <rect x="127" y="21" width="3" height="6" rx="1.5" fill="#F0F4F8" stroke="none"/>
</g>

</svg>
